<mxfile host="" modified="2020-06-14T14:57:45.616Z" agent="5.0 (X11; Linux x86_64) AppleWebKit/537.36 (KHTML, like Gecko) code-oss/1.45.1 Chrome/78.0.3904.130 Electron/7.1.14 Safari/537.36" etag="bSAg02-zbvayfrgpl8e4" version="13.1.3" pages="5">
    <diagram id="6hGFLwfOUW9BJ-s0fimq" name="Index">
        <mxGraphModel dx="1125" dy="806" grid="1" gridSize="10" guides="1" tooltips="1" connect="1" arrows="1" fold="1" page="1" pageScale="1" pageWidth="827" pageHeight="1169" math="0" shadow="0">
            <root>
                <mxCell id="0"/>
                <mxCell id="1" parent="0"/>
                <mxCell id="5" style="edgeStyle=orthogonalEdgeStyle;rounded=0;orthogonalLoop=1;jettySize=auto;html=1;entryX=0.5;entryY=0;entryDx=0;entryDy=0;" parent="1" source="2" target="3" edge="1">
                    <mxGeometry relative="1" as="geometry"/>
                </mxCell>
                <mxCell id="6" style="edgeStyle=orthogonalEdgeStyle;rounded=0;orthogonalLoop=1;jettySize=auto;html=1;entryX=0.5;entryY=0;entryDx=0;entryDy=0;" parent="1" source="2" target="4" edge="1">
                    <mxGeometry relative="1" as="geometry"/>
                </mxCell>
                <mxCell id="fIrG5OefOnMovDJ8t9E--8" style="edgeStyle=orthogonalEdgeStyle;rounded=0;orthogonalLoop=1;jettySize=auto;html=1;entryX=0.5;entryY=0;entryDx=0;entryDy=0;" parent="1" source="2" target="fIrG5OefOnMovDJ8t9E--6" edge="1">
                    <mxGeometry relative="1" as="geometry"/>
                </mxCell>
                <mxCell id="2" value="Liabilities" style="whiteSpace=wrap;html=1;aspect=fixed;" parent="1" vertex="1">
                    <mxGeometry x="480" y="20" width="80" height="80" as="geometry"/>
                </mxCell>
                <mxCell id="bZMmsCw2MI6Tk-kRLGE1-8" style="edgeStyle=orthogonalEdgeStyle;rounded=0;orthogonalLoop=1;jettySize=auto;html=1;" parent="1" source="3" target="bZMmsCw2MI6Tk-kRLGE1-6" edge="1">
                    <mxGeometry relative="1" as="geometry"/>
                </mxCell>
                <mxCell id="3" value="Fixed" style="whiteSpace=wrap;html=1;aspect=fixed;" parent="1" vertex="1">
                    <mxGeometry x="240" y="150" width="80" height="80" as="geometry"/>
                </mxCell>
                <mxCell id="bZMmsCw2MI6Tk-kRLGE1-9" style="edgeStyle=orthogonalEdgeStyle;rounded=0;orthogonalLoop=1;jettySize=auto;html=1;entryX=0.5;entryY=0;entryDx=0;entryDy=0;" parent="1" source="4" target="bZMmsCw2MI6Tk-kRLGE1-7" edge="1">
                    <mxGeometry relative="1" as="geometry"/>
                </mxCell>
                <mxCell id="4" value="Current" style="whiteSpace=wrap;html=1;aspect=fixed;" parent="1" vertex="1">
                    <mxGeometry x="480" y="160" width="80" height="80" as="geometry"/>
                </mxCell>
                <mxCell id="bZMmsCw2MI6Tk-kRLGE1-6" value="&lt;font color=&quot;#00cc00&quot;&gt;&lt;b&gt;Long term loans&lt;br&gt;&lt;br&gt;Bonds Payable&lt;br&gt;&lt;br&gt;Debentures&lt;br&gt;&lt;/b&gt;&lt;/font&gt;" style="rounded=0;whiteSpace=wrap;html=1;align=left;" parent="1" vertex="1">
                    <mxGeometry x="215" y="270" width="130" height="160" as="geometry"/>
                </mxCell>
                <mxCell id="bZMmsCw2MI6Tk-kRLGE1-7" value="&lt;b&gt;&lt;font color=&quot;#00ff00&quot;&gt;Creditors&lt;br&gt;&lt;br&gt;Bills payable&lt;br&gt;&lt;br&gt;Outstanding expenses&lt;br&gt;&lt;br&gt;bank overdraft&lt;br&gt;&lt;br&gt;Short term debt&lt;br&gt;&lt;br&gt;Advances &amp;amp; deposits received&lt;/font&gt;&lt;/b&gt;&lt;br&gt;&lt;ul&gt;&lt;/ul&gt;" style="rounded=0;whiteSpace=wrap;html=1;align=left;" parent="1" vertex="1">
                    <mxGeometry x="420" y="270" width="200" height="200" as="geometry"/>
                </mxCell>
                <mxCell id="fIrG5OefOnMovDJ8t9E--9" style="edgeStyle=orthogonalEdgeStyle;rounded=0;orthogonalLoop=1;jettySize=auto;html=1;entryX=0.5;entryY=0;entryDx=0;entryDy=0;" parent="1" source="fIrG5OefOnMovDJ8t9E--6" target="fIrG5OefOnMovDJ8t9E--7" edge="1">
                    <mxGeometry relative="1" as="geometry"/>
                </mxCell>
                <mxCell id="fIrG5OefOnMovDJ8t9E--6" value="Contigent" style="whiteSpace=wrap;html=1;aspect=fixed;" parent="1" vertex="1">
                    <mxGeometry x="705" y="150" width="80" height="80" as="geometry"/>
                </mxCell>
                <mxCell id="fIrG5OefOnMovDJ8t9E--7" value="&lt;font color=&quot;#00ff00&quot;&gt;&lt;b&gt;Lawsuit proceedings&lt;br&gt;&lt;br&gt;Product warranty claims&lt;br&gt;&lt;br&gt;Guarantee for loans&lt;/b&gt;&lt;/font&gt;&lt;br&gt;&lt;ul&gt;&lt;/ul&gt;" style="rounded=0;whiteSpace=wrap;html=1;align=left;" parent="1" vertex="1">
                    <mxGeometry x="670" y="270" width="150" height="160" as="geometry"/>
                </mxCell>
            </root>
        </mxGraphModel>
    </diagram>
    <diagram id="k4gzNj06NKUBnNSES0GV" name="Database Structure">
        <mxGraphModel dx="1125" dy="806" grid="1" gridSize="10" guides="1" tooltips="1" connect="1" arrows="1" fold="1" page="1" pageScale="1" pageWidth="3300" pageHeight="4681" math="0" shadow="0">
            <root>
                <mxCell id="ZLIagWWz0gJrRWG0zaH9-0"/>
                <mxCell id="ZLIagWWz0gJrRWG0zaH9-1" parent="ZLIagWWz0gJrRWG0zaH9-0"/>
                <mxCell id="0SvQrCjive3bnL10Y1ml-0" style="edgeStyle=orthogonalEdgeStyle;rounded=0;orthogonalLoop=1;jettySize=auto;html=1;entryX=0.5;entryY=0;entryDx=0;entryDy=0;" parent="ZLIagWWz0gJrRWG0zaH9-1" source="0SvQrCjive3bnL10Y1ml-1" target="0SvQrCjive3bnL10Y1ml-2" edge="1">
                    <mxGeometry relative="1" as="geometry"/>
                </mxCell>
                <mxCell id="0SvQrCjive3bnL10Y1ml-1" value="Apps" style="whiteSpace=wrap;html=1;aspect=fixed;strokeColor=#5B60F0;" parent="ZLIagWWz0gJrRWG0zaH9-1" vertex="1">
                    <mxGeometry x="300" y="80" width="80" height="80" as="geometry"/>
                </mxCell>
                <mxCell id="0SvQrCjive3bnL10Y1ml-9" value="" style="edgeStyle=orthogonalEdgeStyle;rounded=0;orthogonalLoop=1;jettySize=auto;html=1;" parent="ZLIagWWz0gJrRWG0zaH9-1" source="0SvQrCjive3bnL10Y1ml-2" target="0SvQrCjive3bnL10Y1ml-4" edge="1">
                    <mxGeometry relative="1" as="geometry"/>
                </mxCell>
                <mxCell id="0SvQrCjive3bnL10Y1ml-2" value="CRM" style="ellipse;whiteSpace=wrap;html=1;aspect=fixed;strokeColor=#F05C26;" parent="ZLIagWWz0gJrRWG0zaH9-1" vertex="1">
                    <mxGeometry x="300" y="190" width="80" height="80" as="geometry"/>
                </mxCell>
                <mxCell id="0SvQrCjive3bnL10Y1ml-3" style="edgeStyle=orthogonalEdgeStyle;rounded=0;orthogonalLoop=1;jettySize=auto;html=1;entryX=0.5;entryY=0;entryDx=0;entryDy=0;" parent="ZLIagWWz0gJrRWG0zaH9-1" source="0SvQrCjive3bnL10Y1ml-4" target="0SvQrCjive3bnL10Y1ml-5" edge="1">
                    <mxGeometry relative="1" as="geometry"/>
                </mxCell>
                <mxCell id="0SvQrCjive3bnL10Y1ml-4" value="** Business ID **" style="whiteSpace=wrap;html=1;aspect=fixed;strokeColor=#F05C26;" parent="ZLIagWWz0gJrRWG0zaH9-1" vertex="1">
                    <mxGeometry x="285" y="310" width="110" height="110" as="geometry"/>
                </mxCell>
                <mxCell id="0SvQrCjive3bnL10Y1ml-11" value="" style="edgeStyle=orthogonalEdgeStyle;rounded=0;orthogonalLoop=1;jettySize=auto;html=1;" parent="ZLIagWWz0gJrRWG0zaH9-1" source="0SvQrCjive3bnL10Y1ml-6" edge="1">
                    <mxGeometry relative="1" as="geometry">
                        <mxPoint x="340" y="590" as="targetPoint"/>
                    </mxGeometry>
                </mxCell>
                <mxCell id="0SvQrCjive3bnL10Y1ml-5" value="Liabilites" style="whiteSpace=wrap;html=1;aspect=fixed;strokeColor=#F05C26;" parent="ZLIagWWz0gJrRWG0zaH9-1" vertex="1">
                    <mxGeometry x="320" y="470" width="40" height="40" as="geometry"/>
                </mxCell>
                <mxCell id="0SvQrCjive3bnL10Y1ml-13" value="" style="edgeStyle=orthogonalEdgeStyle;rounded=0;orthogonalLoop=1;jettySize=auto;html=1;" parent="ZLIagWWz0gJrRWG0zaH9-1" source="0SvQrCjive3bnL10Y1ml-7" target="0SvQrCjive3bnL10Y1ml-8" edge="1">
                    <mxGeometry relative="1" as="geometry"/>
                </mxCell>
                <mxCell id="0SvQrCjive3bnL10Y1ml-7" value="** Liabilites ID **" style="whiteSpace=wrap;html=1;aspect=fixed;strokeColor=#005700;fillColor=#008a00;fontColor=#ffffff;" parent="ZLIagWWz0gJrRWG0zaH9-1" vertex="1">
                    <mxGeometry x="320" y="590" width="40" height="40" as="geometry"/>
                </mxCell>
                <mxCell id="b6DJt6rnyvktnEXb7S_j-8" style="edgeStyle=orthogonalEdgeStyle;rounded=0;orthogonalLoop=1;jettySize=auto;html=1;entryX=0;entryY=0.388;entryDx=0;entryDy=0;entryPerimeter=0;" parent="ZLIagWWz0gJrRWG0zaH9-1" source="0SvQrCjive3bnL10Y1ml-8" target="b6DJt6rnyvktnEXb7S_j-1" edge="1">
                    <mxGeometry relative="1" as="geometry"/>
                </mxCell>
                <mxCell id="0SvQrCjive3bnL10Y1ml-8" value="&lt;ul&gt;&lt;li&gt;asset_name&lt;/li&gt;&lt;li&gt;asset_type&lt;/li&gt;&lt;li&gt;branch&lt;/li&gt;&lt;li&gt;created_month&lt;/li&gt;&lt;li&gt;current_asset&lt;/li&gt;&lt;li&gt;description&lt;/li&gt;&lt;li&gt;documentation&lt;/li&gt;&lt;li&gt;inventory&lt;/li&gt;&lt;li&gt;last_active&lt;/li&gt;&lt;li&gt;price&lt;/li&gt;&lt;li&gt;quantity&lt;/li&gt;&lt;li&gt;reference&lt;/li&gt;&lt;li&gt;timestamp&lt;/li&gt;&lt;li&gt;uid&lt;/li&gt;&lt;/ul&gt;" style="rounded=1;whiteSpace=wrap;html=1;strokeColor=#F05C26;align=left;" parent="ZLIagWWz0gJrRWG0zaH9-1" vertex="1">
                    <mxGeometry x="275" y="660" width="130" height="240" as="geometry"/>
                </mxCell>
                <mxCell id="0SvQrCjive3bnL10Y1ml-6" value="Liabilities" style="whiteSpace=wrap;html=1;aspect=fixed;strokeColor=#F05C26;" parent="ZLIagWWz0gJrRWG0zaH9-1" vertex="1">
                    <mxGeometry x="320" y="530" width="40" height="40" as="geometry"/>
                </mxCell>
                <mxCell id="0SvQrCjive3bnL10Y1ml-12" value="" style="edgeStyle=orthogonalEdgeStyle;rounded=0;orthogonalLoop=1;jettySize=auto;html=1;" parent="ZLIagWWz0gJrRWG0zaH9-1" source="0SvQrCjive3bnL10Y1ml-5" target="0SvQrCjive3bnL10Y1ml-6" edge="1">
                    <mxGeometry relative="1" as="geometry">
                        <mxPoint x="340" y="510" as="sourcePoint"/>
                        <mxPoint x="340" y="590" as="targetPoint"/>
                    </mxGeometry>
                </mxCell>
                <mxCell id="b6DJt6rnyvktnEXb7S_j-0" style="edgeStyle=orthogonalEdgeStyle;rounded=0;orthogonalLoop=1;jettySize=auto;html=1;entryX=0.5;entryY=0;entryDx=0;entryDy=0;" parent="ZLIagWWz0gJrRWG0zaH9-1" source="b6DJt6rnyvktnEXb7S_j-1" target="b6DJt6rnyvktnEXb7S_j-3" edge="1">
                    <mxGeometry relative="1" as="geometry"/>
                </mxCell>
                <mxCell id="b6DJt6rnyvktnEXb7S_j-17" style="edgeStyle=orthogonalEdgeStyle;rounded=0;orthogonalLoop=1;jettySize=auto;html=1;entryX=0;entryY=0.5;entryDx=0;entryDy=0;" parent="ZLIagWWz0gJrRWG0zaH9-1" source="b6DJt6rnyvktnEXb7S_j-1" target="b6DJt6rnyvktnEXb7S_j-10" edge="1">
                    <mxGeometry relative="1" as="geometry"/>
                </mxCell>
                <mxCell id="b6DJt6rnyvktnEXb7S_j-1" value="Apps" style="whiteSpace=wrap;html=1;aspect=fixed;strokeColor=#5B60F0;" parent="ZLIagWWz0gJrRWG0zaH9-1" vertex="1">
                    <mxGeometry x="605" y="80" width="80" height="80" as="geometry"/>
                </mxCell>
                <mxCell id="b6DJt6rnyvktnEXb7S_j-2" value="" style="edgeStyle=orthogonalEdgeStyle;rounded=0;orthogonalLoop=1;jettySize=auto;html=1;" parent="ZLIagWWz0gJrRWG0zaH9-1" source="b6DJt6rnyvktnEXb7S_j-3" target="b6DJt6rnyvktnEXb7S_j-5" edge="1">
                    <mxGeometry relative="1" as="geometry"/>
                </mxCell>
                <mxCell id="b6DJt6rnyvktnEXb7S_j-3" value="CRM" style="ellipse;whiteSpace=wrap;html=1;aspect=fixed;strokeColor=#F05C26;" parent="ZLIagWWz0gJrRWG0zaH9-1" vertex="1">
                    <mxGeometry x="605" y="190" width="80" height="80" as="geometry"/>
                </mxCell>
                <mxCell id="b6DJt6rnyvktnEXb7S_j-4" style="edgeStyle=orthogonalEdgeStyle;rounded=0;orthogonalLoop=1;jettySize=auto;html=1;entryX=0.5;entryY=0;entryDx=0;entryDy=0;" parent="ZLIagWWz0gJrRWG0zaH9-1" source="b6DJt6rnyvktnEXb7S_j-5" target="b6DJt6rnyvktnEXb7S_j-6" edge="1">
                    <mxGeometry relative="1" as="geometry"/>
                </mxCell>
                <mxCell id="b6DJt6rnyvktnEXb7S_j-5" value="** Business ID **" style="whiteSpace=wrap;html=1;aspect=fixed;strokeColor=#F05C26;" parent="ZLIagWWz0gJrRWG0zaH9-1" vertex="1">
                    <mxGeometry x="590" y="310" width="110" height="110" as="geometry"/>
                </mxCell>
                <mxCell id="b6DJt6rnyvktnEXb7S_j-19" value="" style="edgeStyle=orthogonalEdgeStyle;rounded=0;orthogonalLoop=1;jettySize=auto;html=1;" parent="ZLIagWWz0gJrRWG0zaH9-1" source="b6DJt6rnyvktnEXb7S_j-6" target="b6DJt6rnyvktnEXb7S_j-18" edge="1">
                    <mxGeometry relative="1" as="geometry"/>
                </mxCell>
                <mxCell id="b6DJt6rnyvktnEXb7S_j-6" value="stats" style="whiteSpace=wrap;html=1;aspect=fixed;strokeColor=#F05C26;" parent="ZLIagWWz0gJrRWG0zaH9-1" vertex="1">
                    <mxGeometry x="625" y="470" width="40" height="40" as="geometry"/>
                </mxCell>
                <mxCell id="b6DJt6rnyvktnEXb7S_j-21" value="" style="edgeStyle=orthogonalEdgeStyle;rounded=0;orthogonalLoop=1;jettySize=auto;html=1;" parent="ZLIagWWz0gJrRWG0zaH9-1" source="b6DJt6rnyvktnEXb7S_j-18" target="b6DJt6rnyvktnEXb7S_j-20" edge="1">
                    <mxGeometry relative="1" as="geometry"/>
                </mxCell>
                <mxCell id="b6DJt6rnyvktnEXb7S_j-23" value="" style="edgeStyle=orthogonalEdgeStyle;rounded=0;orthogonalLoop=1;jettySize=auto;html=1;" parent="ZLIagWWz0gJrRWG0zaH9-1" source="b6DJt6rnyvktnEXb7S_j-18" target="b6DJt6rnyvktnEXb7S_j-22" edge="1">
                    <mxGeometry relative="1" as="geometry"/>
                </mxCell>
                <mxCell id="b6DJt6rnyvktnEXb7S_j-18" value="total" style="whiteSpace=wrap;html=1;aspect=fixed;strokeColor=#F05C26;" parent="ZLIagWWz0gJrRWG0zaH9-1" vertex="1">
                    <mxGeometry x="625" y="530" width="40" height="40" as="geometry"/>
                </mxCell>
                <mxCell id="b6DJt6rnyvktnEXb7S_j-26" style="edgeStyle=orthogonalEdgeStyle;rounded=0;orthogonalLoop=1;jettySize=auto;html=1;" parent="ZLIagWWz0gJrRWG0zaH9-1" source="b6DJt6rnyvktnEXb7S_j-22" edge="1">
                    <mxGeometry relative="1" as="geometry">
                        <mxPoint x="660" y="720" as="targetPoint"/>
                        <Array as="points">
                            <mxPoint x="688" y="688"/>
                            <mxPoint x="660" y="688"/>
                        </Array>
                    </mxGeometry>
                </mxCell>
                <mxCell id="b6DJt6rnyvktnEXb7S_j-22" value="total" style="whiteSpace=wrap;html=1;aspect=fixed;strokeColor=#F05C26;" parent="ZLIagWWz0gJrRWG0zaH9-1" vertex="1">
                    <mxGeometry x="665" y="610" width="45" height="45" as="geometry"/>
                </mxCell>
                <mxCell id="b6DJt6rnyvktnEXb7S_j-25" style="edgeStyle=orthogonalEdgeStyle;rounded=0;orthogonalLoop=1;jettySize=auto;html=1;entryX=0.5;entryY=0;entryDx=0;entryDy=0;" parent="ZLIagWWz0gJrRWG0zaH9-1" source="b6DJt6rnyvktnEXb7S_j-20" target="b6DJt6rnyvktnEXb7S_j-24" edge="1">
                    <mxGeometry relative="1" as="geometry"/>
                </mxCell>
                <mxCell id="b6DJt6rnyvktnEXb7S_j-20" value="created date" style="whiteSpace=wrap;html=1;aspect=fixed;strokeColor=#F05C26;" parent="ZLIagWWz0gJrRWG0zaH9-1" vertex="1">
                    <mxGeometry x="585" y="610" width="45" height="45" as="geometry"/>
                </mxCell>
                <mxCell id="b6DJt6rnyvktnEXb7S_j-9" style="edgeStyle=orthogonalEdgeStyle;rounded=0;orthogonalLoop=1;jettySize=auto;html=1;entryX=0.5;entryY=0;entryDx=0;entryDy=0;" parent="ZLIagWWz0gJrRWG0zaH9-1" source="b6DJt6rnyvktnEXb7S_j-10" target="b6DJt6rnyvktnEXb7S_j-12" edge="1">
                    <mxGeometry relative="1" as="geometry"/>
                </mxCell>
                <mxCell id="b6DJt6rnyvktnEXb7S_j-10" value="Apps" style="whiteSpace=wrap;html=1;aspect=fixed;strokeColor=#5B60F0;" parent="ZLIagWWz0gJrRWG0zaH9-1" vertex="1">
                    <mxGeometry x="875" y="80" width="80" height="80" as="geometry"/>
                </mxCell>
                <mxCell id="b6DJt6rnyvktnEXb7S_j-11" value="" style="edgeStyle=orthogonalEdgeStyle;rounded=0;orthogonalLoop=1;jettySize=auto;html=1;" parent="ZLIagWWz0gJrRWG0zaH9-1" source="b6DJt6rnyvktnEXb7S_j-12" target="b6DJt6rnyvktnEXb7S_j-14" edge="1">
                    <mxGeometry relative="1" as="geometry"/>
                </mxCell>
                <mxCell id="b6DJt6rnyvktnEXb7S_j-12" value="CRM" style="ellipse;whiteSpace=wrap;html=1;aspect=fixed;strokeColor=#F05C26;" parent="ZLIagWWz0gJrRWG0zaH9-1" vertex="1">
                    <mxGeometry x="875" y="190" width="80" height="80" as="geometry"/>
                </mxCell>
                <mxCell id="b6DJt6rnyvktnEXb7S_j-13" style="edgeStyle=orthogonalEdgeStyle;rounded=0;orthogonalLoop=1;jettySize=auto;html=1;entryX=0.5;entryY=0;entryDx=0;entryDy=0;" parent="ZLIagWWz0gJrRWG0zaH9-1" source="b6DJt6rnyvktnEXb7S_j-14" target="b6DJt6rnyvktnEXb7S_j-15" edge="1">
                    <mxGeometry relative="1" as="geometry"/>
                </mxCell>
                <mxCell id="b6DJt6rnyvktnEXb7S_j-14" value="** Business ID **" style="whiteSpace=wrap;html=1;aspect=fixed;strokeColor=#F05C26;" parent="ZLIagWWz0gJrRWG0zaH9-1" vertex="1">
                    <mxGeometry x="860" y="310" width="110" height="110" as="geometry"/>
                </mxCell>
                <mxCell id="b6DJt6rnyvktnEXb7S_j-28" value="" style="edgeStyle=orthogonalEdgeStyle;rounded=0;orthogonalLoop=1;jettySize=auto;html=1;" parent="ZLIagWWz0gJrRWG0zaH9-1" source="b6DJt6rnyvktnEXb7S_j-15" target="b6DJt6rnyvktnEXb7S_j-27" edge="1">
                    <mxGeometry relative="1" as="geometry"/>
                </mxCell>
                <mxCell id="b6DJt6rnyvktnEXb7S_j-15" value="Activity Timeline" style="whiteSpace=wrap;html=1;aspect=fixed;strokeColor=#F05C26;" parent="ZLIagWWz0gJrRWG0zaH9-1" vertex="1">
                    <mxGeometry x="892.5" y="465" width="45" height="45" as="geometry"/>
                </mxCell>
                <mxCell id="b6DJt6rnyvktnEXb7S_j-30" value="" style="edgeStyle=orthogonalEdgeStyle;rounded=0;orthogonalLoop=1;jettySize=auto;html=1;" parent="ZLIagWWz0gJrRWG0zaH9-1" source="b6DJt6rnyvktnEXb7S_j-27" target="b6DJt6rnyvktnEXb7S_j-29" edge="1">
                    <mxGeometry relative="1" as="geometry"/>
                </mxCell>
                <mxCell id="b6DJt6rnyvktnEXb7S_j-32" style="edgeStyle=orthogonalEdgeStyle;rounded=0;orthogonalLoop=1;jettySize=auto;html=1;entryX=0.5;entryY=0;entryDx=0;entryDy=0;" parent="ZLIagWWz0gJrRWG0zaH9-1" source="b6DJt6rnyvktnEXb7S_j-27" target="b6DJt6rnyvktnEXb7S_j-31" edge="1">
                    <mxGeometry relative="1" as="geometry"/>
                </mxCell>
                <mxCell id="b6DJt6rnyvktnEXb7S_j-27" value="Activity Timeline" style="whiteSpace=wrap;html=1;aspect=fixed;strokeColor=#F05C26;" parent="ZLIagWWz0gJrRWG0zaH9-1" vertex="1">
                    <mxGeometry x="892.5" y="530" width="45" height="45" as="geometry"/>
                </mxCell>
                <mxCell id="b6DJt6rnyvktnEXb7S_j-34" style="edgeStyle=orthogonalEdgeStyle;rounded=0;orthogonalLoop=1;jettySize=auto;html=1;entryX=0.5;entryY=0;entryDx=0;entryDy=0;" parent="ZLIagWWz0gJrRWG0zaH9-1" source="b6DJt6rnyvktnEXb7S_j-29" target="b6DJt6rnyvktnEXb7S_j-33" edge="1">
                    <mxGeometry relative="1" as="geometry"/>
                </mxCell>
                <mxCell id="b6DJt6rnyvktnEXb7S_j-29" value="user ID" style="whiteSpace=wrap;html=1;aspect=fixed;strokeColor=#F05C26;" parent="ZLIagWWz0gJrRWG0zaH9-1" vertex="1">
                    <mxGeometry x="847.5" y="615" width="45" height="45" as="geometry"/>
                </mxCell>
                <mxCell id="b6DJt6rnyvktnEXb7S_j-24" value="&lt;ul&gt;&lt;li&gt;assets_value&lt;/li&gt;&lt;li&gt;assets_data&lt;/li&gt;&lt;li&gt;assets_last_active&lt;/li&gt;&lt;li&gt;current_assets_value&lt;/li&gt;&lt;li&gt;current_assets_data&lt;/li&gt;&lt;li&gt;current_assets_last_active&lt;/li&gt;&lt;li&gt;fixed_assets_value&lt;/li&gt;&lt;li&gt;fixed_assets_data&lt;/li&gt;&lt;li&gt;fixed_assets_last_active&lt;/li&gt;&lt;li&gt;{asset_type_value}&lt;/li&gt;&lt;li&gt;{asset_type_data}&lt;/li&gt;&lt;li&gt;{asset_type_last_active}&lt;/li&gt;&lt;/ul&gt;" style="rounded=1;whiteSpace=wrap;html=1;strokeColor=#F05C26;align=left;" parent="ZLIagWWz0gJrRWG0zaH9-1" vertex="1">
                    <mxGeometry x="570" y="720" width="200" height="250" as="geometry"/>
                </mxCell>
                <mxCell id="b6DJt6rnyvktnEXb7S_j-35" style="edgeStyle=orthogonalEdgeStyle;rounded=0;orthogonalLoop=1;jettySize=auto;html=1;entryX=0.5;entryY=0;entryDx=0;entryDy=0;" parent="ZLIagWWz0gJrRWG0zaH9-1" source="b6DJt6rnyvktnEXb7S_j-31" target="b6DJt6rnyvktnEXb7S_j-33" edge="1">
                    <mxGeometry relative="1" as="geometry"/>
                </mxCell>
                <mxCell id="b6DJt6rnyvktnEXb7S_j-31" value="company" style="whiteSpace=wrap;html=1;aspect=fixed;strokeColor=#F05C26;" parent="ZLIagWWz0gJrRWG0zaH9-1" vertex="1">
                    <mxGeometry x="937.5" y="615" width="45" height="45" as="geometry"/>
                </mxCell>
                <mxCell id="b6DJt6rnyvktnEXb7S_j-33" value="&lt;ul&gt;&lt;li&gt;assetID&lt;/li&gt;&lt;li&gt;asset_type&lt;/li&gt;&lt;li&gt;created_date&lt;/li&gt;&lt;li&gt;reference&lt;/li&gt;&lt;li&gt;activity type&lt;/li&gt;&lt;li&gt;book entries&lt;/li&gt;&lt;/ul&gt;" style="rounded=1;whiteSpace=wrap;html=1;strokeColor=#F05C26;align=left;" parent="ZLIagWWz0gJrRWG0zaH9-1" vertex="1">
                    <mxGeometry x="857.5" y="710" width="125" height="120" as="geometry"/>
                </mxCell>
            </root>
        </mxGraphModel>
    </diagram>
    <diagram id="_1yc6M-A12aUXOLZ_90K" name="Functions">
        &#xa;        &#xa;        &#xa;        
        <mxGraphModel dx="1044" dy="806" grid="1" gridSize="10" guides="1" tooltips="1" connect="1" arrows="1" fold="1" page="1" pageScale="1" pageWidth="3300" pageHeight="4681" math="0" shadow="0">
            &#xa;            &#xa;            &#xa;            
            <root>
                &#xa;                &#xa;                &#xa;                
                <mxCell id="M4IMHjmusEXuxh6YqbXx-0"/>
                &#xa;                &#xa;                &#xa;                
                <mxCell id="M4IMHjmusEXuxh6YqbXx-1" parent="M4IMHjmusEXuxh6YqbXx-0"/>
                &#xa;                &#xa;            &#xa;            
            </root>
            &#xa;            &#xa;        &#xa;        
        </mxGraphModel>
        &#xa;        &#xa;    &#xa;    
    </diagram>
    <diagram id="kWH0ikPrZBJ0sPh8avsi" name="Questions">
        &#xa;        
        <mxGraphModel dx="592" dy="806" grid="1" gridSize="10" guides="1" tooltips="1" connect="1" arrows="1" fold="1" page="1" pageScale="1" pageWidth="3300" pageHeight="4681" math="0" shadow="0">
            &#xa;            
            <root>
                &#xa;                
                <mxCell id="IPYmmoNChUyLdm5GVZw2-0"/>
                &#xa;                
                <mxCell id="IPYmmoNChUyLdm5GVZw2-1" parent="IPYmmoNChUyLdm5GVZw2-0"/>
                &#xa;                
                <mxCell id="waOp5gOY9GueCPtudxNK-5" style="edgeStyle=orthogonalEdgeStyle;rounded=0;orthogonalLoop=1;jettySize=auto;html=1;" parent="IPYmmoNChUyLdm5GVZw2-1" source="waOp5gOY9GueCPtudxNK-0" target="waOp5gOY9GueCPtudxNK-1" edge="1">
                    &#xa;                    
                    <mxGeometry relative="1" as="geometry"/>
                    &#xa;                
                </mxCell>
                &#xa;                
                <mxCell id="waOp5gOY9GueCPtudxNK-6" style="edgeStyle=orthogonalEdgeStyle;rounded=0;orthogonalLoop=1;jettySize=auto;html=1;" parent="IPYmmoNChUyLdm5GVZw2-1" source="waOp5gOY9GueCPtudxNK-0" target="waOp5gOY9GueCPtudxNK-2" edge="1">
                    &#xa;                    
                    <mxGeometry relative="1" as="geometry"/>
                    &#xa;                
                </mxCell>
                &#xa;                
                <mxCell id="waOp5gOY9GueCPtudxNK-0" value="Liability" style="whiteSpace=wrap;html=1;aspect=fixed;" parent="IPYmmoNChUyLdm5GVZw2-1" vertex="1">
                    &#xa;                    
                    <mxGeometry x="460" y="50" width="80" height="80" as="geometry"/>
                    &#xa;                
                </mxCell>
                &#xa;                
                <mxCell id="XJrA5cl6L4-JZxvm1Wz_-20" style="edgeStyle=orthogonalEdgeStyle;rounded=0;orthogonalLoop=1;jettySize=auto;html=1;entryX=0.5;entryY=0;entryDx=0;entryDy=0;" parent="IPYmmoNChUyLdm5GVZw2-1" source="waOp5gOY9GueCPtudxNK-1" target="XJrA5cl6L4-JZxvm1Wz_-0" edge="1">
                    &#xa;                    
                    <mxGeometry relative="1" as="geometry">
                        &#xa;                        
                        <mxPoint x="70" y="270" as="targetPoint"/>
                        &#xa;                    
                    </mxGeometry>
                    &#xa;                
                </mxCell>
                &#xa;                
                <mxCell id="XJrA5cl6L4-JZxvm1Wz_-21" style="edgeStyle=orthogonalEdgeStyle;rounded=0;orthogonalLoop=1;jettySize=auto;html=1;" parent="IPYmmoNChUyLdm5GVZw2-1" source="waOp5gOY9GueCPtudxNK-1" target="XJrA5cl6L4-JZxvm1Wz_-1" edge="1">
                    &#xa;                    
                    <mxGeometry relative="1" as="geometry"/>
                    &#xa;                
                </mxCell>
                &#xa;                
                <mxCell id="XJrA5cl6L4-JZxvm1Wz_-22" style="edgeStyle=orthogonalEdgeStyle;rounded=0;orthogonalLoop=1;jettySize=auto;html=1;entryX=0.5;entryY=0;entryDx=0;entryDy=0;" parent="IPYmmoNChUyLdm5GVZw2-1" source="waOp5gOY9GueCPtudxNK-1" target="XJrA5cl6L4-JZxvm1Wz_-6" edge="1">
                    &#xa;                    
                    <mxGeometry relative="1" as="geometry"/>
                    &#xa;                
                </mxCell>
                &#xa;                
                <mxCell id="XJrA5cl6L4-JZxvm1Wz_-23" style="edgeStyle=orthogonalEdgeStyle;rounded=0;orthogonalLoop=1;jettySize=auto;html=1;entryX=0.5;entryY=0;entryDx=0;entryDy=0;" parent="IPYmmoNChUyLdm5GVZw2-1" source="waOp5gOY9GueCPtudxNK-1" target="XJrA5cl6L4-JZxvm1Wz_-3" edge="1">
                    &#xa;                    
                    <mxGeometry relative="1" as="geometry">
                        &#xa;                        
                        <mxPoint x="300" y="270" as="targetPoint"/>
                        &#xa;                    
                    </mxGeometry>
                    &#xa;                
                </mxCell>
                &#xa;                
                <mxCell id="XJrA5cl6L4-JZxvm1Wz_-26" style="edgeStyle=orthogonalEdgeStyle;rounded=0;orthogonalLoop=1;jettySize=auto;html=1;entryX=0.5;entryY=0;entryDx=0;entryDy=0;" parent="IPYmmoNChUyLdm5GVZw2-1" source="waOp5gOY9GueCPtudxNK-1" target="XJrA5cl6L4-JZxvm1Wz_-4" edge="1">
                    &#xa;                    
                    <mxGeometry relative="1" as="geometry"/>
                    &#xa;                
                </mxCell>
                &#xa;                
                <mxCell id="XJrA5cl6L4-JZxvm1Wz_-27" style="edgeStyle=orthogonalEdgeStyle;rounded=0;orthogonalLoop=1;jettySize=auto;html=1;entryX=0.5;entryY=0;entryDx=0;entryDy=0;" parent="IPYmmoNChUyLdm5GVZw2-1" source="waOp5gOY9GueCPtudxNK-1" target="XJrA5cl6L4-JZxvm1Wz_-2" edge="1">
                    &#xa;                    
                    <mxGeometry relative="1" as="geometry"/>
                    &#xa;                
                </mxCell>
                &#xa;                
                <mxCell id="XJrA5cl6L4-JZxvm1Wz_-28" style="edgeStyle=orthogonalEdgeStyle;rounded=0;orthogonalLoop=1;jettySize=auto;html=1;entryX=0.5;entryY=0;entryDx=0;entryDy=0;" parent="IPYmmoNChUyLdm5GVZw2-1" source="waOp5gOY9GueCPtudxNK-1" target="XJrA5cl6L4-JZxvm1Wz_-5" edge="1">
                    &#xa;                    
                    <mxGeometry relative="1" as="geometry">
                        &#xa;                        
                        <mxPoint x="510" y="270" as="targetPoint"/>
                        &#xa;                    
                    </mxGeometry>
                    &#xa;                
                </mxCell>
                &#xa;                
                <mxCell id="waOp5gOY9GueCPtudxNK-1" value="Current" style="ellipse;whiteSpace=wrap;html=1;aspect=fixed;" parent="IPYmmoNChUyLdm5GVZw2-1" vertex="1">
                    &#xa;                    
                    <mxGeometry x="340" y="180" width="80" height="80" as="geometry"/>
                    &#xa;                
                </mxCell>
                &#xa;                
                <mxCell id="XJrA5cl6L4-JZxvm1Wz_-54" style="edgeStyle=orthogonalEdgeStyle;rounded=0;orthogonalLoop=1;jettySize=auto;html=1;entryX=0.5;entryY=0;entryDx=0;entryDy=0;" parent="IPYmmoNChUyLdm5GVZw2-1" source="waOp5gOY9GueCPtudxNK-2" target="XJrA5cl6L4-JZxvm1Wz_-48" edge="1">
                    &#xa;                    
                    <mxGeometry relative="1" as="geometry"/>
                    &#xa;                
                </mxCell>
                &#xa;                
                <mxCell id="XJrA5cl6L4-JZxvm1Wz_-55" style="edgeStyle=orthogonalEdgeStyle;rounded=0;orthogonalLoop=1;jettySize=auto;html=1;" parent="IPYmmoNChUyLdm5GVZw2-1" source="waOp5gOY9GueCPtudxNK-2" target="XJrA5cl6L4-JZxvm1Wz_-40" edge="1">
                    &#xa;                    
                    <mxGeometry relative="1" as="geometry"/>
                    &#xa;                
                </mxCell>
                &#xa;                
                <mxCell id="uoXhtfPmWp4suCaWeP9a-19" style="edgeStyle=orthogonalEdgeStyle;rounded=0;orthogonalLoop=1;jettySize=auto;html=1;entryX=0.5;entryY=0;entryDx=0;entryDy=0;" parent="IPYmmoNChUyLdm5GVZw2-1" source="waOp5gOY9GueCPtudxNK-2" target="XJrA5cl6L4-JZxvm1Wz_-47" edge="1">
                    &#xa;                    
                    <mxGeometry relative="1" as="geometry"/>
                    &#xa;                
                </mxCell>
                &#xa;                
                <mxCell id="uoXhtfPmWp4suCaWeP9a-20" style="edgeStyle=orthogonalEdgeStyle;rounded=0;orthogonalLoop=1;jettySize=auto;html=1;entryX=0.5;entryY=0;entryDx=0;entryDy=0;" parent="IPYmmoNChUyLdm5GVZw2-1" source="waOp5gOY9GueCPtudxNK-2" target="XJrA5cl6L4-JZxvm1Wz_-46" edge="1">
                    &#xa;                    
                    <mxGeometry relative="1" as="geometry"/>
                    &#xa;                
                </mxCell>
                &#xa;                
                <mxCell id="uoXhtfPmWp4suCaWeP9a-21" style="edgeStyle=orthogonalEdgeStyle;rounded=0;orthogonalLoop=1;jettySize=auto;html=1;" parent="IPYmmoNChUyLdm5GVZw2-1" source="waOp5gOY9GueCPtudxNK-2" target="XJrA5cl6L4-JZxvm1Wz_-45" edge="1">
                    &#xa;                    
                    <mxGeometry relative="1" as="geometry"/>
                    &#xa;                
                </mxCell>
                &#xa;                
                <mxCell id="uoXhtfPmWp4suCaWeP9a-22" style="edgeStyle=orthogonalEdgeStyle;rounded=0;orthogonalLoop=1;jettySize=auto;html=1;entryX=0.5;entryY=0;entryDx=0;entryDy=0;" parent="IPYmmoNChUyLdm5GVZw2-1" source="waOp5gOY9GueCPtudxNK-2" target="XJrA5cl6L4-JZxvm1Wz_-43" edge="1">
                    &#xa;                    
                    <mxGeometry relative="1" as="geometry"/>
                    &#xa;                
                </mxCell>
                &#xa;                
                <mxCell id="uoXhtfPmWp4suCaWeP9a-23" style="edgeStyle=orthogonalEdgeStyle;rounded=0;orthogonalLoop=1;jettySize=auto;html=1;" parent="IPYmmoNChUyLdm5GVZw2-1" source="waOp5gOY9GueCPtudxNK-2" target="XJrA5cl6L4-JZxvm1Wz_-44" edge="1">
                    &#xa;                    
                    <mxGeometry relative="1" as="geometry"/>
                    &#xa;                
                </mxCell>
                &#xa;                
                <mxCell id="uoXhtfPmWp4suCaWeP9a-24" style="edgeStyle=orthogonalEdgeStyle;rounded=0;orthogonalLoop=1;jettySize=auto;html=1;" parent="IPYmmoNChUyLdm5GVZw2-1" source="waOp5gOY9GueCPtudxNK-2" target="XJrA5cl6L4-JZxvm1Wz_-41" edge="1">
                    &#xa;                    
                    <mxGeometry relative="1" as="geometry"/>
                    &#xa;                
                </mxCell>
                &#xa;                
                <mxCell id="uoXhtfPmWp4suCaWeP9a-25" style="edgeStyle=orthogonalEdgeStyle;rounded=0;orthogonalLoop=1;jettySize=auto;html=1;" parent="IPYmmoNChUyLdm5GVZw2-1" source="waOp5gOY9GueCPtudxNK-2" target="XJrA5cl6L4-JZxvm1Wz_-42" edge="1">
                    &#xa;                    
                    <mxGeometry relative="1" as="geometry"/>
                    &#xa;                
                </mxCell>
                &#xa;                
                <mxCell id="uoXhtfPmWp4suCaWeP9a-26" style="edgeStyle=orthogonalEdgeStyle;rounded=0;orthogonalLoop=1;jettySize=auto;html=1;entryX=0.5;entryY=0;entryDx=0;entryDy=0;" parent="IPYmmoNChUyLdm5GVZw2-1" source="waOp5gOY9GueCPtudxNK-2" target="XJrA5cl6L4-JZxvm1Wz_-52" edge="1">
                    &#xa;                    
                    <mxGeometry relative="1" as="geometry"/>
                    &#xa;                
                </mxCell>
                &#xa;                
                <mxCell id="waOp5gOY9GueCPtudxNK-2" value="Fixed" style="ellipse;whiteSpace=wrap;html=1;aspect=fixed;" parent="IPYmmoNChUyLdm5GVZw2-1" vertex="1">
                    &#xa;                    
                    <mxGeometry x="610" y="180" width="80" height="80" as="geometry"/>
                    &#xa;                
                </mxCell>
                &#xa;                
                <mxCell id="XJrA5cl6L4-JZxvm1Wz_-73" value="" style="edgeStyle=orthogonalEdgeStyle;rounded=0;orthogonalLoop=1;jettySize=auto;html=1;" parent="IPYmmoNChUyLdm5GVZw2-1" source="uoXhtfPmWp4suCaWeP9a-17" target="waOp5gOY9GueCPtudxNK-4" edge="1">
                    &#xa;                    
                    <mxGeometry relative="1" as="geometry"/>
                    &#xa;                
                </mxCell>
                &#xa;                
                <mxCell id="waOp5gOY9GueCPtudxNK-3" value="Value" style="whiteSpace=wrap;html=1;aspect=fixed;" parent="IPYmmoNChUyLdm5GVZw2-1" vertex="1">
                    &#xa;                    
                    <mxGeometry x="470" y="610" width="80" height="80" as="geometry"/>
                    &#xa;                
                </mxCell>
                &#xa;                
                <mxCell id="uoXhtfPmWp4suCaWeP9a-2" style="edgeStyle=orthogonalEdgeStyle;rounded=0;orthogonalLoop=1;jettySize=auto;html=1;entryX=0.5;entryY=0;entryDx=0;entryDy=0;" parent="IPYmmoNChUyLdm5GVZw2-1" target="uoXhtfPmWp4suCaWeP9a-0" edge="1">
                    &#xa;                    
                    <mxGeometry relative="1" as="geometry">
                        &#xa;                        
                        <mxPoint x="460" y="890" as="sourcePoint"/>
                        &#xa;                    
                    </mxGeometry>
                    &#xa;                
                </mxCell>
                &#xa;                
                <mxCell id="uoXhtfPmWp4suCaWeP9a-3" style="edgeStyle=orthogonalEdgeStyle;rounded=0;orthogonalLoop=1;jettySize=auto;html=1;entryX=0.5;entryY=0;entryDx=0;entryDy=0;" parent="IPYmmoNChUyLdm5GVZw2-1" target="uoXhtfPmWp4suCaWeP9a-1" edge="1">
                    &#xa;                    
                    <mxGeometry relative="1" as="geometry">
                        &#xa;                        
                        <mxPoint x="540" y="890" as="sourcePoint"/>
                        &#xa;                    
                    </mxGeometry>
                    &#xa;                
                </mxCell>
                &#xa;                
                <mxCell id="waOp5gOY9GueCPtudxNK-4" value="Transaction Type" style="ellipse;whiteSpace=wrap;html=1;aspect=fixed;" parent="IPYmmoNChUyLdm5GVZw2-1" vertex="1">
                    &#xa;                    
                    <mxGeometry x="460" y="850" width="80" height="80" as="geometry"/>
                    &#xa;                
                </mxCell>
                &#xa;                
                <mxCell id="XJrA5cl6L4-JZxvm1Wz_-19" style="edgeStyle=orthogonalEdgeStyle;rounded=0;orthogonalLoop=1;jettySize=auto;html=1;entryX=-0.05;entryY=0.888;entryDx=0;entryDy=0;entryPerimeter=0;" parent="IPYmmoNChUyLdm5GVZw2-1" source="XJrA5cl6L4-JZxvm1Wz_-0" target="waOp5gOY9GueCPtudxNK-3" edge="1">
                    &#xa;                    
                    <mxGeometry relative="1" as="geometry">
                        &#xa;                        
                        <mxPoint x="60" y="670" as="targetPoint"/>
                        &#xa;                        
                        <Array as="points">
                            &#xa;                            
                            <mxPoint x="60" y="681"/>
                            &#xa;                        
                        </Array>
                        &#xa;                    
                    </mxGeometry>
                    &#xa;                
                </mxCell>
                &#xa;                
                <mxCell id="XJrA5cl6L4-JZxvm1Wz_-0" value="Cash" style="rounded=0;whiteSpace=wrap;html=1;" parent="IPYmmoNChUyLdm5GVZw2-1" vertex="1">
                    &#xa;                    
                    <mxGeometry x="30" y="280" width="60" height="40" as="geometry"/>
                    &#xa;                
                </mxCell>
                &#xa;                
                <mxCell id="XJrA5cl6L4-JZxvm1Wz_-14" value="" style="edgeStyle=orthogonalEdgeStyle;rounded=0;orthogonalLoop=1;jettySize=auto;html=1;" parent="IPYmmoNChUyLdm5GVZw2-1" source="XJrA5cl6L4-JZxvm1Wz_-1" edge="1">
                    &#xa;                    
                    <mxGeometry relative="1" as="geometry">
                        &#xa;                        
                        <mxPoint x="135" y="600" as="targetPoint"/>
                        &#xa;                    
                    </mxGeometry>
                    &#xa;                
                </mxCell>
                &#xa;                
                <mxCell id="XJrA5cl6L4-JZxvm1Wz_-1" value="Cash Equivalent" style="rounded=0;whiteSpace=wrap;html=1;fillColor=#60a917;strokeColor=#2D7600;fontColor=#ffffff;" parent="IPYmmoNChUyLdm5GVZw2-1" vertex="1">
                    &#xa;                    
                    <mxGeometry x="100" y="280" width="70" height="40" as="geometry"/>
                    &#xa;                
                </mxCell>
                &#xa;                
                <mxCell id="XJrA5cl6L4-JZxvm1Wz_-18" value="" style="edgeStyle=orthogonalEdgeStyle;rounded=0;orthogonalLoop=1;jettySize=auto;html=1;" parent="IPYmmoNChUyLdm5GVZw2-1" source="XJrA5cl6L4-JZxvm1Wz_-2" target="XJrA5cl6L4-JZxvm1Wz_-16" edge="1">
                    &#xa;                    
                    <mxGeometry relative="1" as="geometry"/>
                    &#xa;                
                </mxCell>
                &#xa;                
                <mxCell id="XJrA5cl6L4-JZxvm1Wz_-2" value="Stock or Inventory" style="rounded=0;whiteSpace=wrap;html=1;fillColor=#1ba1e2;strokeColor=#006EAF;fontColor=#ffffff;" parent="IPYmmoNChUyLdm5GVZw2-1" vertex="1">
                    &#xa;                    
                    <mxGeometry x="425" y="280" width="70" height="40" as="geometry"/>
                    &#xa;                
                </mxCell>
                &#xa;                
                <mxCell id="XJrA5cl6L4-JZxvm1Wz_-3" value="Accounts Receivalbe" style="rounded=0;whiteSpace=wrap;html=1;" parent="IPYmmoNChUyLdm5GVZw2-1" vertex="1">
                    &#xa;                    
                    <mxGeometry x="260" y="280" width="70" height="40" as="geometry"/>
                    &#xa;                
                </mxCell>
                &#xa;                
                <mxCell id="XJrA5cl6L4-JZxvm1Wz_-31" style="edgeStyle=orthogonalEdgeStyle;rounded=0;orthogonalLoop=1;jettySize=auto;html=1;" parent="IPYmmoNChUyLdm5GVZw2-1" source="XJrA5cl6L4-JZxvm1Wz_-4" edge="1">
                    &#xa;                    
                    <mxGeometry relative="1" as="geometry">
                        &#xa;                        
                        <mxPoint x="380" y="680" as="targetPoint"/>
                        &#xa;                        
                        <Array as="points">
                            &#xa;                            
                            <mxPoint x="380" y="658"/>
                            &#xa;                        
                        </Array>
                        &#xa;                    
                    </mxGeometry>
                    &#xa;                
                </mxCell>
                &#xa;                
                <mxCell id="XJrA5cl6L4-JZxvm1Wz_-4" value="Marketable Securities" style="rounded=0;whiteSpace=wrap;html=1;" parent="IPYmmoNChUyLdm5GVZw2-1" vertex="1">
                    &#xa;                    
                    <mxGeometry x="345" y="280" width="70" height="40" as="geometry"/>
                    &#xa;                
                </mxCell>
                &#xa;                
                <mxCell id="XJrA5cl6L4-JZxvm1Wz_-29" style="edgeStyle=orthogonalEdgeStyle;rounded=0;orthogonalLoop=1;jettySize=auto;html=1;" parent="IPYmmoNChUyLdm5GVZw2-1" source="XJrA5cl6L4-JZxvm1Wz_-5" target="waOp5gOY9GueCPtudxNK-3" edge="1">
                    &#xa;                    
                    <mxGeometry relative="1" as="geometry"/>
                    &#xa;                
                </mxCell>
                &#xa;                
                <mxCell id="XJrA5cl6L4-JZxvm1Wz_-5" value="Prepaid Expenses" style="rounded=0;whiteSpace=wrap;html=1;" parent="IPYmmoNChUyLdm5GVZw2-1" vertex="1">
                    &#xa;                    
                    <mxGeometry x="510" y="280" width="70" height="40" as="geometry"/>
                    &#xa;                
                </mxCell>
                &#xa;                
                <mxCell id="XJrA5cl6L4-JZxvm1Wz_-6" value="Other Liquid Assets" style="rounded=0;whiteSpace=wrap;html=1;" parent="IPYmmoNChUyLdm5GVZw2-1" vertex="1">
                    &#xa;                    
                    <mxGeometry x="180" y="280" width="70" height="40" as="geometry"/>
                    &#xa;                
                </mxCell>
                &#xa;                
                <mxCell id="XJrA5cl6L4-JZxvm1Wz_-7" value="Bank Balances" style="rounded=0;whiteSpace=wrap;html=1;fillColor=#60a917;strokeColor=#2D7600;fontColor=#ffffff;" parent="IPYmmoNChUyLdm5GVZw2-1" vertex="1">
                    &#xa;                    
                    <mxGeometry x="100" y="340" width="70" height="40" as="geometry"/>
                    &#xa;                
                </mxCell>
                &#xa;                
                <mxCell id="XJrA5cl6L4-JZxvm1Wz_-8" value="Bank OverDraft&lt;br&gt;" style="rounded=0;whiteSpace=wrap;html=1;fillColor=#60a917;strokeColor=#2D7600;fontColor=#ffffff;" parent="IPYmmoNChUyLdm5GVZw2-1" vertex="1">
                    &#xa;                    
                    <mxGeometry x="100" y="390" width="70" height="40" as="geometry"/>
                    &#xa;                
                </mxCell>
                &#xa;                
                <mxCell id="XJrA5cl6L4-JZxvm1Wz_-9" value="Cheques" style="rounded=0;whiteSpace=wrap;html=1;fillColor=#60a917;strokeColor=#2D7600;fontColor=#ffffff;" parent="IPYmmoNChUyLdm5GVZw2-1" vertex="1">
                    &#xa;                    
                    <mxGeometry x="100" y="440" width="70" height="40" as="geometry"/>
                    &#xa;                
                </mxCell>
                &#xa;                
                <mxCell id="XJrA5cl6L4-JZxvm1Wz_-10" value="Drafts on Hand" style="rounded=0;whiteSpace=wrap;html=1;fillColor=#60a917;strokeColor=#2D7600;fontColor=#ffffff;" parent="IPYmmoNChUyLdm5GVZw2-1" vertex="1">
                    &#xa;                    
                    <mxGeometry x="100" y="490" width="70" height="40" as="geometry"/>
                    &#xa;                
                </mxCell>
                &#xa;                
                <mxCell id="XJrA5cl6L4-JZxvm1Wz_-13" value="" style="edgeStyle=orthogonalEdgeStyle;rounded=0;orthogonalLoop=1;jettySize=auto;html=1;" parent="IPYmmoNChUyLdm5GVZw2-1" source="XJrA5cl6L4-JZxvm1Wz_-11" target="XJrA5cl6L4-JZxvm1Wz_-12" edge="1">
                    &#xa;                    
                    <mxGeometry relative="1" as="geometry"/>
                    &#xa;                
                </mxCell>
                &#xa;                
                <mxCell id="XJrA5cl6L4-JZxvm1Wz_-11" value="Demand Deposit" style="rounded=0;whiteSpace=wrap;html=1;fillColor=#60a917;strokeColor=#2D7600;fontColor=#ffffff;" parent="IPYmmoNChUyLdm5GVZw2-1" vertex="1">
                    &#xa;                    
                    <mxGeometry x="100" y="540" width="70" height="40" as="geometry"/>
                    &#xa;                
                </mxCell>
                &#xa;                
                <mxCell id="XJrA5cl6L4-JZxvm1Wz_-34" value="" style="edgeStyle=orthogonalEdgeStyle;rounded=0;orthogonalLoop=1;jettySize=auto;html=1;" parent="IPYmmoNChUyLdm5GVZw2-1" source="XJrA5cl6L4-JZxvm1Wz_-12" edge="1">
                    &#xa;                    
                    <mxGeometry relative="1" as="geometry">
                        &#xa;                        
                        <mxPoint x="135" y="670" as="targetPoint"/>
                        &#xa;                    
                    </mxGeometry>
                    &#xa;                
                </mxCell>
                &#xa;                
                <mxCell id="XJrA5cl6L4-JZxvm1Wz_-12" value="Short term investments" style="rounded=0;whiteSpace=wrap;html=1;fillColor=#60a917;strokeColor=#2D7600;fontColor=#ffffff;" parent="IPYmmoNChUyLdm5GVZw2-1" vertex="1">
                    &#xa;                    
                    <mxGeometry x="100" y="600" width="70" height="40" as="geometry"/>
                    &#xa;                
                </mxCell>
                &#xa;                
                <mxCell id="XJrA5cl6L4-JZxvm1Wz_-30" style="edgeStyle=orthogonalEdgeStyle;rounded=0;orthogonalLoop=1;jettySize=auto;html=1;exitX=0.5;exitY=1;exitDx=0;exitDy=0;" parent="IPYmmoNChUyLdm5GVZw2-1" source="XJrA5cl6L4-JZxvm1Wz_-15" edge="1">
                    &#xa;                    
                    <mxGeometry relative="1" as="geometry">
                        &#xa;                        
                        <mxPoint x="510" y="620" as="targetPoint"/>
                        &#xa;                    
                    </mxGeometry>
                    &#xa;                
                </mxCell>
                &#xa;                
                <mxCell id="XJrA5cl6L4-JZxvm1Wz_-15" value="Finished Goods" style="rounded=0;whiteSpace=wrap;html=1;fillColor=#1ba1e2;strokeColor=#006EAF;fontColor=#ffffff;" parent="IPYmmoNChUyLdm5GVZw2-1" vertex="1">
                    &#xa;                    
                    <mxGeometry x="425" y="340" width="70" height="40" as="geometry"/>
                    &#xa;                
                </mxCell>
                &#xa;                
                <mxCell id="XJrA5cl6L4-JZxvm1Wz_-16" value="Work in Progress" style="rounded=0;whiteSpace=wrap;html=1;fillColor=#1ba1e2;strokeColor=#006EAF;fontColor=#ffffff;" parent="IPYmmoNChUyLdm5GVZw2-1" vertex="1">
                    &#xa;                    
                    <mxGeometry x="425" y="390" width="70" height="40" as="geometry"/>
                    &#xa;                
                </mxCell>
                &#xa;                
                <mxCell id="XJrA5cl6L4-JZxvm1Wz_-17" value="Raw material" style="rounded=0;whiteSpace=wrap;html=1;fillColor=#1ba1e2;strokeColor=#006EAF;fontColor=#ffffff;" parent="IPYmmoNChUyLdm5GVZw2-1" vertex="1">
                    &#xa;                    
                    <mxGeometry x="425" y="440" width="70" height="40" as="geometry"/>
                    &#xa;                
                </mxCell>
                &#xa;                
                <mxCell id="XJrA5cl6L4-JZxvm1Wz_-38" value="" style="edgeStyle=orthogonalEdgeStyle;rounded=0;orthogonalLoop=1;jettySize=auto;html=1;" parent="IPYmmoNChUyLdm5GVZw2-1" source="XJrA5cl6L4-JZxvm1Wz_-35" edge="1">
                    &#xa;                    
                    <mxGeometry relative="1" as="geometry">
                        &#xa;                        
                        <mxPoint x="295" y="680" as="targetPoint"/>
                        &#xa;                    
                    </mxGeometry>
                    &#xa;                
                </mxCell>
                &#xa;                
                <mxCell id="XJrA5cl6L4-JZxvm1Wz_-35" value="&lt;font color=&quot;#4d9900&quot;&gt;Link to a user&lt;/font&gt;" style="shape=umlActor;verticalLabelPosition=bottom;labelBackgroundColor=#ffffff;verticalAlign=top;html=1;outlineConnect=0;" parent="IPYmmoNChUyLdm5GVZw2-1" vertex="1">
                    &#xa;                    
                    <mxGeometry x="280" y="420" width="30" height="60" as="geometry"/>
                    &#xa;                
                </mxCell>
                &#xa;                
                <mxCell id="XJrA5cl6L4-JZxvm1Wz_-36" style="edgeStyle=orthogonalEdgeStyle;rounded=0;orthogonalLoop=1;jettySize=auto;html=1;" parent="IPYmmoNChUyLdm5GVZw2-1" source="XJrA5cl6L4-JZxvm1Wz_-3" target="XJrA5cl6L4-JZxvm1Wz_-35" edge="1">
                    &#xa;                    
                    <mxGeometry relative="1" as="geometry">
                        &#xa;                        
                        <mxPoint x="295" y="680" as="targetPoint"/>
                        &#xa;                        
                        <mxPoint x="295" y="320" as="sourcePoint"/>
                        &#xa;                    
                    </mxGeometry>
                    &#xa;                
                </mxCell>
                &#xa;                
                <mxCell id="XJrA5cl6L4-JZxvm1Wz_-59" value="" style="edgeStyle=orthogonalEdgeStyle;rounded=0;orthogonalLoop=1;jettySize=auto;html=1;" parent="IPYmmoNChUyLdm5GVZw2-1" source="XJrA5cl6L4-JZxvm1Wz_-40" edge="1">
                    &#xa;                    
                    <mxGeometry relative="1" as="geometry">
                        &#xa;                        
                        <mxPoint x="745" y="640" as="targetPoint"/>
                        &#xa;                    
                    </mxGeometry>
                    &#xa;                
                </mxCell>
                &#xa;                
                <mxCell id="XJrA5cl6L4-JZxvm1Wz_-40" value="Computer Equipment" style="rounded=0;whiteSpace=wrap;html=1;fillColor=#6a00ff;strokeColor=#3700CC;fontColor=#ffffff;" parent="IPYmmoNChUyLdm5GVZw2-1" vertex="1">
                    &#xa;                    
                    <mxGeometry x="710" y="290" width="70" height="40" as="geometry"/>
                    &#xa;                
                </mxCell>
                &#xa;                
                <mxCell id="XJrA5cl6L4-JZxvm1Wz_-58" value="Desktop Computers" style="rounded=0;whiteSpace=wrap;html=1;fillColor=#6a00ff;strokeColor=#3700CC;fontColor=#ffffff;" parent="IPYmmoNChUyLdm5GVZw2-1" vertex="1">
                    &#xa;                    
                    <mxGeometry x="710" y="410" width="70" height="40" as="geometry"/>
                    &#xa;                
                </mxCell>
                &#xa;                
                <mxCell id="XJrA5cl6L4-JZxvm1Wz_-69" style="edgeStyle=orthogonalEdgeStyle;rounded=0;orthogonalLoop=1;jettySize=auto;html=1;" parent="IPYmmoNChUyLdm5GVZw2-1" source="XJrA5cl6L4-JZxvm1Wz_-41" edge="1">
                    &#xa;                    
                    <mxGeometry relative="1" as="geometry">
                        &#xa;                        
                        <mxPoint x="1295" y="640" as="targetPoint"/>
                        &#xa;                    
                    </mxGeometry>
                    &#xa;                
                </mxCell>
                &#xa;                
                <mxCell id="XJrA5cl6L4-JZxvm1Wz_-41" value="Computer Software" style="rounded=0;whiteSpace=wrap;html=1;" parent="IPYmmoNChUyLdm5GVZw2-1" vertex="1">
                    &#xa;                    
                    <mxGeometry x="1260" y="290" width="70" height="40" as="geometry"/>
                    &#xa;                
                </mxCell>
                &#xa;                
                <mxCell id="XJrA5cl6L4-JZxvm1Wz_-70" style="edgeStyle=orthogonalEdgeStyle;rounded=0;orthogonalLoop=1;jettySize=auto;html=1;" parent="IPYmmoNChUyLdm5GVZw2-1" source="XJrA5cl6L4-JZxvm1Wz_-42" edge="1">
                    &#xa;                    
                    <mxGeometry relative="1" as="geometry">
                        &#xa;                        
                        <mxPoint x="1385" y="640" as="targetPoint"/>
                        &#xa;                    
                    </mxGeometry>
                    &#xa;                
                </mxCell>
                &#xa;                
                <mxCell id="XJrA5cl6L4-JZxvm1Wz_-42" value="Construction in progress" style="rounded=0;whiteSpace=wrap;html=1;" parent="IPYmmoNChUyLdm5GVZw2-1" vertex="1">
                    &#xa;                    
                    <mxGeometry x="1350" y="290" width="70" height="40" as="geometry"/>
                    &#xa;                
                </mxCell>
                &#xa;                
                <mxCell id="XJrA5cl6L4-JZxvm1Wz_-64" style="edgeStyle=orthogonalEdgeStyle;rounded=0;orthogonalLoop=1;jettySize=auto;html=1;" parent="IPYmmoNChUyLdm5GVZw2-1" source="XJrA5cl6L4-JZxvm1Wz_-43" edge="1">
                    &#xa;                    
                    <mxGeometry relative="1" as="geometry">
                        &#xa;                        
                        <mxPoint x="1115" y="640" as="targetPoint"/>
                        &#xa;                    
                    </mxGeometry>
                    &#xa;                
                </mxCell>
                &#xa;                
                <mxCell id="XJrA5cl6L4-JZxvm1Wz_-43" value="Furniture and fixtures" style="rounded=0;whiteSpace=wrap;html=1;" parent="IPYmmoNChUyLdm5GVZw2-1" vertex="1">
                    &#xa;                    
                    <mxGeometry x="1080" y="290" width="70" height="40" as="geometry"/>
                    &#xa;                
                </mxCell>
                &#xa;                
                <mxCell id="XJrA5cl6L4-JZxvm1Wz_-67" value="" style="edgeStyle=orthogonalEdgeStyle;rounded=0;orthogonalLoop=1;jettySize=auto;html=1;" parent="IPYmmoNChUyLdm5GVZw2-1" source="XJrA5cl6L4-JZxvm1Wz_-44" edge="1">
                    &#xa;                    
                    <mxGeometry relative="1" as="geometry">
                        &#xa;                        
                        <mxPoint x="1200" y="640" as="targetPoint"/>
                        &#xa;                    
                    </mxGeometry>
                    &#xa;                
                </mxCell>
                &#xa;                
                <mxCell id="XJrA5cl6L4-JZxvm1Wz_-44" value="Intangible assets" style="rounded=0;whiteSpace=wrap;html=1;fillColor=#fa6800;strokeColor=#C73500;fontColor=#ffffff;" parent="IPYmmoNChUyLdm5GVZw2-1" vertex="1">
                    &#xa;                    
                    <mxGeometry x="1170" y="290" width="70" height="40" as="geometry"/>
                    &#xa;                
                </mxCell>
                &#xa;                
                <mxCell id="XJrA5cl6L4-JZxvm1Wz_-66" value="Radio Licenses" style="rounded=0;whiteSpace=wrap;html=1;fillColor=#fa6800;strokeColor=#C73500;fontColor=#ffffff;" parent="IPYmmoNChUyLdm5GVZw2-1" vertex="1">
                    &#xa;                    
                    <mxGeometry x="1170" y="410" width="70" height="40" as="geometry"/>
                    &#xa;                
                </mxCell>
                &#xa;                
                <mxCell id="XJrA5cl6L4-JZxvm1Wz_-63" style="edgeStyle=orthogonalEdgeStyle;rounded=0;orthogonalLoop=1;jettySize=auto;html=1;" parent="IPYmmoNChUyLdm5GVZw2-1" source="XJrA5cl6L4-JZxvm1Wz_-45" edge="1">
                    &#xa;                    
                    <mxGeometry relative="1" as="geometry">
                        &#xa;                        
                        <mxPoint x="1025" y="640" as="targetPoint"/>
                        &#xa;                    
                    </mxGeometry>
                    &#xa;                
                </mxCell>
                &#xa;                
                <mxCell id="XJrA5cl6L4-JZxvm1Wz_-45" value="Land" style="rounded=0;whiteSpace=wrap;html=1;" parent="IPYmmoNChUyLdm5GVZw2-1" vertex="1">
                    &#xa;                    
                    <mxGeometry x="990" y="290" width="70" height="40" as="geometry"/>
                    &#xa;                
                </mxCell>
                &#xa;                
                <mxCell id="XJrA5cl6L4-JZxvm1Wz_-62" style="edgeStyle=orthogonalEdgeStyle;rounded=0;orthogonalLoop=1;jettySize=auto;html=1;" parent="IPYmmoNChUyLdm5GVZw2-1" source="XJrA5cl6L4-JZxvm1Wz_-46" edge="1">
                    &#xa;                    
                    <mxGeometry relative="1" as="geometry">
                        &#xa;                        
                        <mxPoint x="930" y="640" as="targetPoint"/>
                        &#xa;                    
                    </mxGeometry>
                    &#xa;                
                </mxCell>
                &#xa;                
                <mxCell id="XJrA5cl6L4-JZxvm1Wz_-46" value="leasehold improvements" style="rounded=0;whiteSpace=wrap;html=1;" parent="IPYmmoNChUyLdm5GVZw2-1" vertex="1">
                    &#xa;                    
                    <mxGeometry x="890" y="290" width="80" height="40" as="geometry"/>
                    &#xa;                
                </mxCell>
                &#xa;                
                <mxCell id="XJrA5cl6L4-JZxvm1Wz_-61" style="edgeStyle=orthogonalEdgeStyle;rounded=0;orthogonalLoop=1;jettySize=auto;html=1;" parent="IPYmmoNChUyLdm5GVZw2-1" source="XJrA5cl6L4-JZxvm1Wz_-47" edge="1">
                    &#xa;                    
                    <mxGeometry relative="1" as="geometry">
                        &#xa;                        
                        <mxPoint x="845" y="640" as="targetPoint"/>
                        &#xa;                    
                    </mxGeometry>
                    &#xa;                
                </mxCell>
                &#xa;                
                <mxCell id="XJrA5cl6L4-JZxvm1Wz_-47" value="Machinery" style="rounded=0;whiteSpace=wrap;html=1;" parent="IPYmmoNChUyLdm5GVZw2-1" vertex="1">
                    &#xa;                    
                    <mxGeometry x="810" y="290" width="70" height="40" as="geometry"/>
                    &#xa;                
                </mxCell>
                &#xa;                
                <mxCell id="XJrA5cl6L4-JZxvm1Wz_-56" style="edgeStyle=orthogonalEdgeStyle;rounded=0;orthogonalLoop=1;jettySize=auto;html=1;" parent="IPYmmoNChUyLdm5GVZw2-1" source="XJrA5cl6L4-JZxvm1Wz_-48" edge="1">
                    &#xa;                    
                    <mxGeometry relative="1" as="geometry">
                        &#xa;                        
                        <mxPoint x="650" y="640" as="targetPoint"/>
                        &#xa;                    
                    </mxGeometry>
                    &#xa;                
                </mxCell>
                &#xa;                
                <mxCell id="XJrA5cl6L4-JZxvm1Wz_-48" value="Office Equipment" style="rounded=0;whiteSpace=wrap;html=1;" parent="IPYmmoNChUyLdm5GVZw2-1" vertex="1">
                    &#xa;                    
                    <mxGeometry x="615" y="290" width="70" height="40" as="geometry"/>
                    &#xa;                
                </mxCell>
                &#xa;                
                <mxCell id="XJrA5cl6L4-JZxvm1Wz_-71" style="edgeStyle=orthogonalEdgeStyle;rounded=0;orthogonalLoop=1;jettySize=auto;html=1;" parent="IPYmmoNChUyLdm5GVZw2-1" source="XJrA5cl6L4-JZxvm1Wz_-52" edge="1">
                    &#xa;                    
                    <mxGeometry relative="1" as="geometry">
                        &#xa;                        
                        <mxPoint x="1475" y="640" as="targetPoint"/>
                        &#xa;                    
                    </mxGeometry>
                    &#xa;                
                </mxCell>
                &#xa;                
                <mxCell id="XJrA5cl6L4-JZxvm1Wz_-52" value="Vehicles" style="rounded=0;whiteSpace=wrap;html=1;" parent="IPYmmoNChUyLdm5GVZw2-1" vertex="1">
                    &#xa;                    
                    <mxGeometry x="1440" y="290" width="70" height="40" as="geometry"/>
                    &#xa;                
                </mxCell>
                &#xa;                
                <mxCell id="XJrA5cl6L4-JZxvm1Wz_-57" value="Servers" style="rounded=0;whiteSpace=wrap;html=1;fillColor=#6a00ff;strokeColor=#3700CC;fontColor=#ffffff;" parent="IPYmmoNChUyLdm5GVZw2-1" vertex="1">
                    &#xa;                    
                    <mxGeometry x="710" y="350" width="70" height="40" as="geometry"/>
                    &#xa;                
                </mxCell>
                &#xa;                
                <mxCell id="XJrA5cl6L4-JZxvm1Wz_-60" value="Laptops" style="rounded=0;whiteSpace=wrap;html=1;fillColor=#6a00ff;strokeColor=#3700CC;fontColor=#ffffff;" parent="IPYmmoNChUyLdm5GVZw2-1" vertex="1">
                    &#xa;                    
                    <mxGeometry x="710" y="470" width="70" height="40" as="geometry"/>
                    &#xa;                
                </mxCell>
                &#xa;                
                <mxCell id="XJrA5cl6L4-JZxvm1Wz_-65" value="Patents" style="rounded=0;whiteSpace=wrap;html=1;fillColor=#fa6800;strokeColor=#C73500;fontColor=#ffffff;" parent="IPYmmoNChUyLdm5GVZw2-1" vertex="1">
                    &#xa;                    
                    <mxGeometry x="1170" y="360" width="70" height="40" as="geometry"/>
                    &#xa;                
                </mxCell>
                &#xa;                
                <mxCell id="XJrA5cl6L4-JZxvm1Wz_-68" value="Copyrights" style="rounded=0;whiteSpace=wrap;html=1;fillColor=#fa6800;strokeColor=#C73500;fontColor=#ffffff;" parent="IPYmmoNChUyLdm5GVZw2-1" vertex="1">
                    &#xa;                    
                    <mxGeometry x="1170" y="470" width="70" height="40" as="geometry"/>
                    &#xa;                
                </mxCell>
                &#xa;                
                <mxCell id="XJrA5cl6L4-JZxvm1Wz_-72" value="" style="endArrow=classic;html=1;" parent="IPYmmoNChUyLdm5GVZw2-1" target="waOp5gOY9GueCPtudxNK-3" edge="1">
                    &#xa;                    
                    <mxGeometry width="50" height="50" relative="1" as="geometry">
                        &#xa;                        
                        <mxPoint x="1480" y="649" as="sourcePoint"/>
                        &#xa;                        
                        <mxPoint x="1430" y="490" as="targetPoint"/>
                        &#xa;                    
                    </mxGeometry>
                    &#xa;                
                </mxCell>
                &#xa;                
                <mxCell id="uoXhtfPmWp4suCaWeP9a-0" value="Cash" style="rounded=0;whiteSpace=wrap;html=1;" parent="IPYmmoNChUyLdm5GVZw2-1" vertex="1">
                    &#xa;                    
                    <mxGeometry x="330" y="970" width="120" height="60" as="geometry"/>
                    &#xa;                
                </mxCell>
                &#xa;                
                <mxCell id="uoXhtfPmWp4suCaWeP9a-9" style="edgeStyle=orthogonalEdgeStyle;rounded=0;orthogonalLoop=1;jettySize=auto;html=1;entryX=0.5;entryY=0;entryDx=0;entryDy=0;" parent="IPYmmoNChUyLdm5GVZw2-1" source="uoXhtfPmWp4suCaWeP9a-1" target="uoXhtfPmWp4suCaWeP9a-4" edge="1">
                    &#xa;                    
                    <mxGeometry relative="1" as="geometry"/>
                    &#xa;                
                </mxCell>
                &#xa;                
                <mxCell id="uoXhtfPmWp4suCaWeP9a-10" style="edgeStyle=orthogonalEdgeStyle;rounded=0;orthogonalLoop=1;jettySize=auto;html=1;entryX=0.5;entryY=0;entryDx=0;entryDy=0;" parent="IPYmmoNChUyLdm5GVZw2-1" source="uoXhtfPmWp4suCaWeP9a-1" target="uoXhtfPmWp4suCaWeP9a-5" edge="1">
                    &#xa;                    
                    <mxGeometry relative="1" as="geometry">
                        &#xa;                        
                        <Array as="points">
                            &#xa;                            
                            <mxPoint x="620" y="1050"/>
                            &#xa;                            
                            <mxPoint x="720" y="1050"/>
                            &#xa;                        
                        </Array>
                        &#xa;                    
                    </mxGeometry>
                    &#xa;                
                </mxCell>
                &#xa;                
                <mxCell id="uoXhtfPmWp4suCaWeP9a-12" value="" style="edgeStyle=orthogonalEdgeStyle;rounded=0;orthogonalLoop=1;jettySize=auto;html=1;entryX=0.5;entryY=0;entryDx=0;entryDy=0;" parent="IPYmmoNChUyLdm5GVZw2-1" source="uoXhtfPmWp4suCaWeP9a-1" target="uoXhtfPmWp4suCaWeP9a-6" edge="1">
                    &#xa;                    
                    <mxGeometry relative="1" as="geometry">
                        &#xa;                        
                        <mxPoint x="970" y="1010" as="targetPoint"/>
                        &#xa;                    
                    </mxGeometry>
                    &#xa;                
                </mxCell>
                &#xa;                
                <mxCell id="uoXhtfPmWp4suCaWeP9a-1" value="Credit" style="rounded=0;whiteSpace=wrap;html=1;" parent="IPYmmoNChUyLdm5GVZw2-1" vertex="1">
                    &#xa;                    
                    <mxGeometry x="560" y="970" width="120" height="60" as="geometry"/>
                    &#xa;                
                </mxCell>
                &#xa;                
                <mxCell id="uoXhtfPmWp4suCaWeP9a-4" value="Deposit" style="rounded=0;whiteSpace=wrap;html=1;" parent="IPYmmoNChUyLdm5GVZw2-1" vertex="1">
                    &#xa;                    
                    <mxGeometry x="510" y="1070" width="120" height="30" as="geometry"/>
                    &#xa;                
                </mxCell>
                &#xa;                
                <mxCell id="uoXhtfPmWp4suCaWeP9a-5" value="Loan Amount" style="rounded=0;whiteSpace=wrap;html=1;" parent="IPYmmoNChUyLdm5GVZw2-1" vertex="1">
                    &#xa;                    
                    <mxGeometry x="660" y="1070" width="120" height="30" as="geometry"/>
                    &#xa;                
                </mxCell>
                &#xa;                
                <mxCell id="uoXhtfPmWp4suCaWeP9a-13" style="edgeStyle=orthogonalEdgeStyle;rounded=0;orthogonalLoop=1;jettySize=auto;html=1;entryX=0.5;entryY=0;entryDx=0;entryDy=0;" parent="IPYmmoNChUyLdm5GVZw2-1" source="uoXhtfPmWp4suCaWeP9a-6" target="uoXhtfPmWp4suCaWeP9a-7" edge="1">
                    &#xa;                    
                    <mxGeometry relative="1" as="geometry"/>
                    &#xa;                
                </mxCell>
                &#xa;                
                <mxCell id="uoXhtfPmWp4suCaWeP9a-16" style="edgeStyle=orthogonalEdgeStyle;rounded=0;orthogonalLoop=1;jettySize=auto;html=1;entryX=0.5;entryY=0;entryDx=0;entryDy=0;" parent="IPYmmoNChUyLdm5GVZw2-1" source="uoXhtfPmWp4suCaWeP9a-6" target="uoXhtfPmWp4suCaWeP9a-8" edge="1">
                    &#xa;                    
                    <mxGeometry relative="1" as="geometry"/>
                    &#xa;                
                </mxCell>
                &#xa;                
                <mxCell id="uoXhtfPmWp4suCaWeP9a-6" value="Interest" style="rounded=0;whiteSpace=wrap;html=1;" parent="IPYmmoNChUyLdm5GVZw2-1" vertex="1">
                    &#xa;                    
                    <mxGeometry x="810" y="1070" width="120" height="30" as="geometry"/>
                    &#xa;                
                </mxCell>
                &#xa;                
                <mxCell id="uoXhtfPmWp4suCaWeP9a-7" value="Fixed" style="rounded=0;whiteSpace=wrap;html=1;" parent="IPYmmoNChUyLdm5GVZw2-1" vertex="1">
                    &#xa;                    
                    <mxGeometry x="780" y="1130" width="80" height="20" as="geometry"/>
                    &#xa;                
                </mxCell>
                &#xa;                
                <mxCell id="uoXhtfPmWp4suCaWeP9a-8" value="Variable" style="rounded=0;whiteSpace=wrap;html=1;" parent="IPYmmoNChUyLdm5GVZw2-1" vertex="1">
                    &#xa;                    
                    <mxGeometry x="870" y="1130" width="80" height="20" as="geometry"/>
                    &#xa;                
                </mxCell>
                &#xa;                
                <mxCell id="uoXhtfPmWp4suCaWeP9a-17" value="Appreciation/Depreciation" style="rounded=0;whiteSpace=wrap;html=1;" parent="IPYmmoNChUyLdm5GVZw2-1" vertex="1">
                    &#xa;                    
                    <mxGeometry x="425" y="730" width="160" height="60" as="geometry"/>
                    &#xa;                
                </mxCell>
                &#xa;                
                <mxCell id="uoXhtfPmWp4suCaWeP9a-18" value="" style="edgeStyle=orthogonalEdgeStyle;rounded=0;orthogonalLoop=1;jettySize=auto;html=1;" parent="IPYmmoNChUyLdm5GVZw2-1" source="waOp5gOY9GueCPtudxNK-3" target="uoXhtfPmWp4suCaWeP9a-17" edge="1">
                    &#xa;                    
                    <mxGeometry relative="1" as="geometry">
                        &#xa;                        
                        <mxPoint x="510" y="690" as="sourcePoint"/>
                        &#xa;                        
                        <mxPoint x="500" y="850" as="targetPoint"/>
                        &#xa;                    
                    </mxGeometry>
                    &#xa;                
                </mxCell>
                &#xa;            
            </root>
            &#xa;        
        </mxGraphModel>
        &#xa;    
    </diagram>
    <diagram id="XxAQkDI5Bk1g_GwmfnUV" name="Book Entries">
        &#xa;        
        <mxGraphModel dx="592" dy="806" grid="1" gridSize="10" guides="1" tooltips="1" connect="1" arrows="1" fold="1" page="1" pageScale="1" pageWidth="3300" pageHeight="4681" math="0" shadow="0">
            &#xa;            
            <root>
                &#xa;                
                <mxCell id="bhLoS5Q-9nMrikbAch8--0"/>
                &#xa;                
                <mxCell id="bhLoS5Q-9nMrikbAch8--1" parent="bhLoS5Q-9nMrikbAch8--0"/>
                &#xa;                
                <mxCell id="52Dz4_7XV_ChBpZ4pIKk-0" value="Transaction Type" style="ellipse;whiteSpace=wrap;html=1;aspect=fixed;fillColor=#60a917;strokeColor=#2D7600;fontColor=#ffffff;" parent="bhLoS5Q-9nMrikbAch8--1" vertex="1">
                    &#xa;                    
                    <mxGeometry x="230" y="40" width="80" height="80" as="geometry"/>
                    &#xa;                
                </mxCell>
                &#xa;                
                <mxCell id="52Dz4_7XV_ChBpZ4pIKk-1" style="edgeStyle=orthogonalEdgeStyle;rounded=0;orthogonalLoop=1;jettySize=auto;html=1;entryX=0.5;entryY=0;entryDx=0;entryDy=0;fillColor=#60a917;strokeColor=#2D7600;" parent="bhLoS5Q-9nMrikbAch8--1" target="52Dz4_7XV_ChBpZ4pIKk-2" edge="1">
                    &#xa;                    
                    <mxGeometry relative="1" as="geometry">
                        &#xa;                        
                        <mxPoint x="230" y="80" as="sourcePoint"/>
                        &#xa;                    
                    </mxGeometry>
                    &#xa;                
                </mxCell>
                &#xa;                
                <mxCell id="52Dz4_7XV_ChBpZ4pIKk-16" value="" style="edgeStyle=orthogonalEdgeStyle;rounded=0;orthogonalLoop=1;jettySize=auto;html=1;" parent="bhLoS5Q-9nMrikbAch8--1" source="52Dz4_7XV_ChBpZ4pIKk-2" target="52Dz4_7XV_ChBpZ4pIKk-15" edge="1">
                    &#xa;                    
                    <mxGeometry relative="1" as="geometry"/>
                    &#xa;                
                </mxCell>
                &#xa;                
                <mxCell id="52Dz4_7XV_ChBpZ4pIKk-18" style="edgeStyle=orthogonalEdgeStyle;rounded=0;orthogonalLoop=1;jettySize=auto;html=1;" parent="bhLoS5Q-9nMrikbAch8--1" source="52Dz4_7XV_ChBpZ4pIKk-2" target="52Dz4_7XV_ChBpZ4pIKk-17" edge="1">
                    &#xa;                    
                    <mxGeometry relative="1" as="geometry"/>
                    &#xa;                
                </mxCell>
                &#xa;                
                <mxCell id="52Dz4_7XV_ChBpZ4pIKk-2" value="Cash" style="rounded=0;whiteSpace=wrap;html=1;fillColor=#60a917;strokeColor=#2D7600;fontColor=#ffffff;" parent="bhLoS5Q-9nMrikbAch8--1" vertex="1">
                    &#xa;                    
                    <mxGeometry x="100" y="160" width="120" height="60" as="geometry"/>
                    &#xa;                
                </mxCell>
                &#xa;                
                <mxCell id="52Dz4_7XV_ChBpZ4pIKk-17" value="Credit Cash&lt;br&gt;R12 000" style="rounded=0;whiteSpace=wrap;html=1;fillColor=#d80073;strokeColor=#A50040;fontColor=#ffffff;" parent="bhLoS5Q-9nMrikbAch8--1" vertex="1">
                    &#xa;                    
                    <mxGeometry x="190" y="410" width="120" height="60" as="geometry"/>
                    &#xa;                
                </mxCell>
                &#xa;                
                <mxCell id="52Dz4_7XV_ChBpZ4pIKk-15" value="Debit Assets:&lt;br&gt;Vehicle R12 000" style="rounded=0;whiteSpace=wrap;html=1;fillColor=#0050ef;strokeColor=#001DBC;fontColor=#ffffff;" parent="bhLoS5Q-9nMrikbAch8--1" vertex="1">
                    &#xa;                    
                    <mxGeometry x="10" y="410" width="120" height="60" as="geometry"/>
                    &#xa;                
                </mxCell>
                &#xa;                
                <mxCell id="52Dz4_7XV_ChBpZ4pIKk-3" value="Credit" style="rounded=0;whiteSpace=wrap;html=1;fillColor=#60a917;strokeColor=#2D7600;fontColor=#ffffff;" parent="bhLoS5Q-9nMrikbAch8--1" vertex="1">
                    &#xa;                    
                    <mxGeometry x="330" y="160" width="120" height="60" as="geometry"/>
                    &#xa;                
                </mxCell>
                &#xa;                
                <mxCell id="52Dz4_7XV_ChBpZ4pIKk-4" style="edgeStyle=orthogonalEdgeStyle;rounded=0;orthogonalLoop=1;jettySize=auto;html=1;entryX=0.5;entryY=0;entryDx=0;entryDy=0;fillColor=#60a917;strokeColor=#2D7600;" parent="bhLoS5Q-9nMrikbAch8--1" target="52Dz4_7XV_ChBpZ4pIKk-3" edge="1">
                    &#xa;                    
                    <mxGeometry relative="1" as="geometry">
                        &#xa;                        
                        <mxPoint x="310" y="80" as="sourcePoint"/>
                        &#xa;                    
                    </mxGeometry>
                    &#xa;                
                </mxCell>
                &#xa;                
                <mxCell id="52Dz4_7XV_ChBpZ4pIKk-5" value="" style="edgeStyle=orthogonalEdgeStyle;rounded=0;orthogonalLoop=1;jettySize=auto;html=1;entryX=0.5;entryY=0;entryDx=0;entryDy=0;fillColor=#60a917;strokeColor=#2D7600;" parent="bhLoS5Q-9nMrikbAch8--1" source="52Dz4_7XV_ChBpZ4pIKk-3" target="52Dz4_7XV_ChBpZ4pIKk-10" edge="1">
                    &#xa;                    
                    <mxGeometry relative="1" as="geometry">
                        &#xa;                        
                        <mxPoint x="740" y="200" as="targetPoint"/>
                        &#xa;                        
                        <Array as="points">
                            &#xa;                            
                            <mxPoint x="390" y="310"/>
                            &#xa;                            
                            <mxPoint x="680" y="310"/>
                            &#xa;                            
                            <mxPoint x="680" y="410"/>
                            &#xa;                            
                            <mxPoint x="690" y="410"/>
                            &#xa;                        
                        </Array>
                        &#xa;                    
                    </mxGeometry>
                    &#xa;                
                </mxCell>
                &#xa;                
                <mxCell id="52Dz4_7XV_ChBpZ4pIKk-6" style="edgeStyle=orthogonalEdgeStyle;rounded=0;orthogonalLoop=1;jettySize=auto;html=1;entryX=0.5;entryY=0;entryDx=0;entryDy=0;fillColor=#60a917;strokeColor=#2D7600;" parent="bhLoS5Q-9nMrikbAch8--1" source="52Dz4_7XV_ChBpZ4pIKk-3" target="52Dz4_7XV_ChBpZ4pIKk-9" edge="1">
                    &#xa;                    
                    <mxGeometry relative="1" as="geometry">
                        &#xa;                        
                        <Array as="points">
                            &#xa;                            
                            <mxPoint x="390" y="310"/>
                            &#xa;                            
                            <mxPoint x="520" y="310"/>
                            &#xa;                            
                            <mxPoint x="520" y="350"/>
                            &#xa;                            
                            <mxPoint x="540" y="350"/>
                            &#xa;                        
                        </Array>
                        &#xa;                    
                    </mxGeometry>
                    &#xa;                
                </mxCell>
                &#xa;                
                <mxCell id="52Dz4_7XV_ChBpZ4pIKk-7" style="edgeStyle=orthogonalEdgeStyle;rounded=0;orthogonalLoop=1;jettySize=auto;html=1;entryX=0.5;entryY=0;entryDx=0;entryDy=0;fillColor=#60a917;strokeColor=#2D7600;" parent="bhLoS5Q-9nMrikbAch8--1" source="52Dz4_7XV_ChBpZ4pIKk-21" target="52Dz4_7XV_ChBpZ4pIKk-8" edge="1">
                    &#xa;                    
                    <mxGeometry relative="1" as="geometry"/>
                    &#xa;                
                </mxCell>
                &#xa;                
                <mxCell id="52Dz4_7XV_ChBpZ4pIKk-8" value="Deposit" style="rounded=0;whiteSpace=wrap;html=1;fillColor=#60a917;strokeColor=#2D7600;fontColor=#ffffff;" parent="bhLoS5Q-9nMrikbAch8--1" vertex="1">
                    &#xa;                    
                    <mxGeometry x="330" y="430" width="120" height="30" as="geometry"/>
                    &#xa;                
                </mxCell>
                &#xa;                
                <mxCell id="52Dz4_7XV_ChBpZ4pIKk-9" value="Loan Amount" style="rounded=0;whiteSpace=wrap;html=1;fillColor=#60a917;strokeColor=#2D7600;fontColor=#ffffff;" parent="bhLoS5Q-9nMrikbAch8--1" vertex="1">
                    &#xa;                    
                    <mxGeometry x="480" y="430" width="120" height="30" as="geometry"/>
                    &#xa;                
                </mxCell>
                &#xa;                
                <mxCell id="52Dz4_7XV_ChBpZ4pIKk-10" value="Interest" style="rounded=0;whiteSpace=wrap;html=1;fillColor=#60a917;strokeColor=#2D7600;fontColor=#ffffff;" parent="bhLoS5Q-9nMrikbAch8--1" vertex="1">
                    &#xa;                    
                    <mxGeometry x="630" y="430" width="120" height="30" as="geometry"/>
                    &#xa;                
                </mxCell>
                &#xa;                
                <mxCell id="52Dz4_7XV_ChBpZ4pIKk-11" value="Variable" style="rounded=0;whiteSpace=wrap;html=1;fillColor=#60a917;strokeColor=#2D7600;fontColor=#ffffff;" parent="bhLoS5Q-9nMrikbAch8--1" vertex="1">
                    &#xa;                    
                    <mxGeometry x="690" y="490" width="80" height="20" as="geometry"/>
                    &#xa;                
                </mxCell>
                &#xa;                
                <mxCell id="52Dz4_7XV_ChBpZ4pIKk-12" value="Fixed" style="rounded=0;whiteSpace=wrap;html=1;fillColor=#60a917;strokeColor=#2D7600;fontColor=#ffffff;" parent="bhLoS5Q-9nMrikbAch8--1" vertex="1">
                    &#xa;                    
                    <mxGeometry x="600" y="490" width="80" height="20" as="geometry"/>
                    &#xa;                
                </mxCell>
                &#xa;                
                <mxCell id="52Dz4_7XV_ChBpZ4pIKk-13" style="edgeStyle=orthogonalEdgeStyle;rounded=0;orthogonalLoop=1;jettySize=auto;html=1;entryX=0.5;entryY=0;entryDx=0;entryDy=0;fillColor=#60a917;strokeColor=#2D7600;" parent="bhLoS5Q-9nMrikbAch8--1" source="52Dz4_7XV_ChBpZ4pIKk-10" target="52Dz4_7XV_ChBpZ4pIKk-11" edge="1">
                    &#xa;                    
                    <mxGeometry relative="1" as="geometry"/>
                    &#xa;                
                </mxCell>
                &#xa;                
                <mxCell id="52Dz4_7XV_ChBpZ4pIKk-14" style="edgeStyle=orthogonalEdgeStyle;rounded=0;orthogonalLoop=1;jettySize=auto;html=1;entryX=0.5;entryY=0;entryDx=0;entryDy=0;fillColor=#60a917;strokeColor=#2D7600;" parent="bhLoS5Q-9nMrikbAch8--1" source="52Dz4_7XV_ChBpZ4pIKk-10" target="52Dz4_7XV_ChBpZ4pIKk-12" edge="1">
                    &#xa;                    
                    <mxGeometry relative="1" as="geometry"/>
                    &#xa;                
                </mxCell>
                &#xa;                
                <mxCell id="52Dz4_7XV_ChBpZ4pIKk-20" value="Example: Buy Vehicle cash for R12 000" style="shape=process;whiteSpace=wrap;html=1;backgroundOutline=1;" parent="bhLoS5Q-9nMrikbAch8--1" vertex="1">
                    &#xa;                    
                    <mxGeometry x="100" y="230" width="120" height="60" as="geometry"/>
                    &#xa;                
                </mxCell>
                &#xa;                
                <mxCell id="52Dz4_7XV_ChBpZ4pIKk-22" value="Residual Value" style="rounded=0;whiteSpace=wrap;html=1;fillColor=#60a917;strokeColor=#2D7600;fontColor=#ffffff;" parent="bhLoS5Q-9nMrikbAch8--1" vertex="1">
                    &#xa;                    
                    <mxGeometry x="780" y="430" width="120" height="30" as="geometry"/>
                    &#xa;                
                </mxCell>
                &#xa;                
                <mxCell id="52Dz4_7XV_ChBpZ4pIKk-24" style="edgeStyle=orthogonalEdgeStyle;rounded=0;orthogonalLoop=1;jettySize=auto;html=1;entryX=0.5;entryY=0;entryDx=0;entryDy=0;fillColor=#60a917;strokeColor=#2D7600;" parent="bhLoS5Q-9nMrikbAch8--1" source="52Dz4_7XV_ChBpZ4pIKk-21" target="52Dz4_7XV_ChBpZ4pIKk-22" edge="1">
                    &#xa;                    
                    <mxGeometry relative="1" as="geometry"/>
                    &#xa;                
                </mxCell>
                &#xa;                
                <mxCell id="52Dz4_7XV_ChBpZ4pIKk-26" style="edgeStyle=orthogonalEdgeStyle;rounded=0;orthogonalLoop=1;jettySize=auto;html=1;entryX=0.5;entryY=0;entryDx=0;entryDy=0;" parent="bhLoS5Q-9nMrikbAch8--1" source="52Dz4_7XV_ChBpZ4pIKk-21" target="52Dz4_7XV_ChBpZ4pIKk-25" edge="1">
                    &#xa;                    
                    <mxGeometry relative="1" as="geometry"/>
                    &#xa;                
                </mxCell>
                &#xa;                
                <mxCell id="52Dz4_7XV_ChBpZ4pIKk-21" value="Example: Buy Vehicle&amp;nbsp; for R12 000, Should be good for 5 years with no residual value expected. Pays R3000 down with R9000 financed with 12% interest only vehicle loan (paid annually)" style="shape=process;whiteSpace=wrap;html=1;backgroundOutline=1;" parent="bhLoS5Q-9nMrikbAch8--1" vertex="1">
                    &#xa;                    
                    <mxGeometry x="340" y="270" width="350" height="60" as="geometry"/>
                    &#xa;                
                </mxCell>
                &#xa;                
                <mxCell id="52Dz4_7XV_ChBpZ4pIKk-25" value="Depreciation" style="rounded=0;whiteSpace=wrap;html=1;fillColor=#60a917;strokeColor=#2D7600;fontColor=#ffffff;" parent="bhLoS5Q-9nMrikbAch8--1" vertex="1">
                    &#xa;                    
                    <mxGeometry x="910" y="430" width="120" height="30" as="geometry"/>
                    &#xa;                
                </mxCell>
                &#xa;            
            </root>
            &#xa;        
        </mxGraphModel>
        &#xa;    
    </diagram>
</mxfile>